<?xml version="1.0" encoding="UTF-8" standalone="no"?>
<!-- Created with Inkscape (http://www.inkscape.org/) -->

<svg
   xmlns:dc="http://purl.org/dc/elements/1.1/"
   xmlns:cc="http://creativecommons.org/ns#"
   xmlns:rdf="http://www.w3.org/1999/02/22-rdf-syntax-ns#"
   xmlns:svg="http://www.w3.org/2000/svg"
   xmlns="http://www.w3.org/2000/svg"
   xmlns:sodipodi="http://sodipodi.sourceforge.net/DTD/sodipodi-0.dtd"
   xmlns:inkscape="http://www.inkscape.org/namespaces/inkscape"
   width="210mm"
   height="297mm"
   viewBox="0 0 210 297"
   version="1.1"
   id="svg80"
   inkscape:version="0.92.2 (5c3e80d, 2017-08-06)"
   sodipodi:docname="piantavera1.svg">
  <g
     inkscape:label="Layer 1"
     inkscape:groupmode="layer"
     id="layer1">
    <path
       style="fill:none;stroke:#000000;stroke-width:0.26458332px;stroke-linecap:butt;stroke-linejoin:miter;stroke-opacity:1"
       d="M 0,296.99894 H 80.000241 V 137.00159 H 0 Z"
       id="path82"
       inkscape:connector-curvature="0" />
    <path
       style="fill:none;stroke:#000000;stroke-width:0.26458332px;stroke-linecap:butt;stroke-linejoin:miter;stroke-opacity:1"
       d="M 1.9961693,138.99358 H 25.002534 v -0.99459 h 29.993 v 1.00105 H 78.000941 V 294.99546 H 1.9961693 V 231.99503 H 0.99809336 V 201.99804 H 1.9991397 v -63.00446 z"
       id="path84"
       inkscape:connector-curvature="0" />
    <path
       style="fill:none;stroke:#000000;stroke-width:0.26458332px;stroke-linecap:butt;stroke-linejoin:miter;stroke-opacity:1"
       d="M 80.000241,296.99894 H 240.00307 v -160.001 H 80.001286 v 160.001 z"
       id="path86"
       inkscape:connector-curvature="0" />
    <path
       style="fill:none;stroke:#000000;stroke-width:0.26458332px;stroke-linecap:butt;stroke-linejoin:miter;stroke-opacity:1"
       d="m 81.99721,138.99413 h 63.00068 v -0.99445 h 30.00508 v 1.00036 h 62.9921 V 294.99546 H 81.99721 Z"
       id="path88"
       inkscape:connector-curvature="0" />
    <path
       style="fill:none;stroke:#000000;stroke-width:0.26458332px;stroke-linecap:butt;stroke-linejoin:miter;stroke-opacity:1"
       d="M 0,296.99894 V 496.9996 H 199.99277 V 296.97637 H 0 Z"
       id="path90"
       inkscape:connector-curvature="0" />
    <path
       style="fill:none;stroke:#000000;stroke-width:0.26458332px;stroke-linecap:butt;stroke-linejoin:miter;stroke-opacity:1"
       d="m 2.0020926,298.99618 v 136.0035 H 0.99514042 v 30.00187 H 1.9961867 v 29.99923 H 27.499529 v 0.99808 H 57.50258 v -0.9984 h 27.497768 v 1.00105 h 30.001862 v -0.99811 h 27.48891 v 0.99515 h 30.00839 v -1.00195 h 25.49505 V 298.99618 Z"
       id="path92"
       inkscape:connector-curvature="0" />
    <path
       style="fill:none;stroke:#000000;stroke-width:0.26458332px;stroke-linecap:butt;stroke-linejoin:miter;stroke-opacity:1"
       d="m 240.00307,136.99794 h 79.99581 V 57.002827 h 160.00047 v 79.902713 h 79.996 V 297 h -79.9656 v 79.91359 H 320.00409 V 297 h -80.00102 z"
       id="path94"
       inkscape:connector-curvature="0" />
    <path
       style="fill:none;stroke:#000000;stroke-width:0.26458332px;stroke-linecap:butt;stroke-linejoin:miter;stroke-opacity:1"
       d="M 242.0042,294.99546 V 139.00194 h 22.99355 v -1.00226 h 30.00099 v 1.00226 h 27.00153 v -27.00258 h -1.00399 V 82.002536 h 1.00087 V 59.004829 h 155.98917 v 22.991672 h 1.01582 v 30.007769 h -0.99894 v 26.98931 h 27.0025 v -0.99164 h 29.99272 v 1 h 23.00073 V 295.0038 h -79.9951 V 374.993 H 321.99296 V 295.00382 H 242.0042 Z"
       id="path96"
       inkscape:connector-curvature="0" />
    <path
       style="fill:none;stroke:#000000;stroke-width:0.26458332px;stroke-linecap:butt;stroke-linejoin:miter;stroke-opacity:1"
       d="M 559.99535,136.90554 H 720.00009 V 297 H 559.99856 V 136.90554 Z"
       id="path104"
       inkscape:connector-curvature="0" />
    <path
       style="fill:none;stroke:#000000;stroke-width:0.26458332px;stroke-linecap:butt;stroke-linejoin:miter;stroke-opacity:1"
       d="m 562.001,138.98523 h 62.99835 v -0.98329 h 30.00089 v 0.9981 h 63.00264 V 294.992 H 561.99153 V 138.98523 Z"
       id="path106"
       inkscape:connector-curvature="0" />
    <path
       style="fill:none;stroke:#000000;stroke-width:0.26458332px;stroke-linecap:butt;stroke-linejoin:miter;stroke-opacity:1"
       d="m 720.00009,136.90554 h 79.99965 V 297.04675 H 720.00151 V 136.90554 Z"
       id="path108"
       inkscape:connector-curvature="0" />
    <path
       style="fill:none;stroke:#000000;stroke-width:0.26458332px;stroke-linecap:butt;stroke-linejoin:miter;stroke-opacity:1"
       d="m 721.99856,138.99192 h 23.00021 v -0.99411 h 29.99888 v 1.00288 h 23.00568 v 62.99735 h 0.99697 v 30.00033 h -1.00044 v 63.00209 H 721.99272 V 138.99192 Z"
       id="path110"
       inkscape:connector-curvature="0" />
    <path
       style="fill:none;stroke:#000000;stroke-width:0.26458332px;stroke-linecap:butt;stroke-linejoin:miter;stroke-opacity:1"
       d="M 799.99974,297.04675 V 496.99812 H 599.99644 V 297.00585 h 200.0033 z"
       id="path112"
       inkscape:connector-curvature="0" />
    <path
       style="fill:none;stroke:#000000;stroke-width:0.26458332px;stroke-linecap:butt;stroke-linejoin:miter;stroke-opacity:1"
       d="m 601.99285,494.99826 h 25.512 v 1.00148 h 29.99713 v -1.00148 h 27.49685 v 0.99976 h 30.00142 v -0.99875 h 27.49913 v 1.0002 h 30.00433 v -1.00121 h 25.49615 v -29.99851 h 1.00322 v -29.99888 h -0.99975 V 298.99951 H 601.99285 Z"
       id="path114"
       inkscape:connector-curvature="0" />
    <path
       style="fill:none;stroke:#000000;stroke-width:0.26458332px;stroke-linecap:butt;stroke-linejoin:miter;stroke-opacity:1"
       d="m 199.99277,296.97637 h 119.99595 v 79.91539 H 199.99277 Z"
       id="path116"
       inkscape:connector-curvature="0" />
    <path
       style="fill:none;stroke:#000000;stroke-width:0.26458332px;stroke-linecap:butt;stroke-linejoin:miter;stroke-opacity:1"
       d="m 201.99729,298.99951 h 115.99499 v 76.00296 H 201.99729 Z"
       id="path118"
       inkscape:connector-curvature="0" />
    <path
       style="fill:none;stroke:#000000;stroke-width:0.26458332px;stroke-linecap:butt;stroke-linejoin:miter;stroke-opacity:1"
       d="m 599.99644,297.00585 h -119.962 v 79.88178 h 119.962 z"
       id="path120"
       inkscape:connector-curvature="0" />
    <path
       style="fill:none;stroke:#000000;stroke-width:0.26458332px;stroke-linecap:butt;stroke-linejoin:miter;stroke-opacity:1"
       d="m 481.9964,298.98438 h 115.995 v 76.01405 H 481.99886 v -76.01405 z"
       id="path122"
       inkscape:connector-curvature="0" />
  </g>
</svg>
